<svg width="160" height="160" viewBox="0 0 160 160" fill="none" xmlns="http://www.w3.org/2000/svg">
<path d="M118 28C118 43.464 105.464 56 90 56C74.536 56 62 43.464 62 28C62 12.536 74.536 0 90 0C105.464 0 118 12.536 118 28ZM81.6 28C81.6 32.6392 85.3608 36.4 90 36.4C94.6392 36.4 98.4 32.6392 98.4 28C98.4 23.3608 94.6392 19.6 90 19.6C85.3608 19.6 81.6 23.3608 81.6 28Z" fill="#6E36B3"/>
<path d="M160 5.50777C160 2.46593 157.511 -0.0546508 154.528 0.539899C149.14 1.61373 144.143 4.25897 140.201 8.20104C134.95 13.4521 132 20.574 132 28C132 35.4261 134.95 42.548 140.201 47.799C144.143 51.7411 149.14 54.3863 154.528 55.4602C157.511 56.0547 160 53.5341 160 50.4923L160 41.9078C160 38.8659 157.289 36.5128 154.878 34.6581C154.592 34.4378 154.319 34.198 154.06 33.9397C152.485 32.3644 151.6 30.2278 151.6 28C151.6 25.7722 152.485 23.6356 154.06 22.0603C154.319 21.802 154.592 21.5623 154.878 21.342C157.289 19.4873 160 17.1341 160 14.0923V5.50777Z" fill="#6E36B3"/>
<path d="M0 7.71085C0 3.45227 3.45226 0 7.71084 0H42.2892C46.5477 0 50 3.45226 50 7.71084V152.289C50 156.548 46.5477 160 42.2892 160H7.71084C3.45226 160 0 156.548 0 152.289V7.71085Z" fill="#6E36B3"/>
<path d="M0 75.7109C0 71.4523 3.45226 68.0001 7.71084 68.0001H152.289C156.548 68.0001 160 71.4523 160 75.7109V110.289C160 114.548 156.548 118 152.289 118H7.71085C3.45227 118 0 114.548 0 110.289V75.7109Z" fill="#6E36B3"/>
<path d="M110 75.7109C110 71.4523 113.452 68.0001 117.711 68.0001H152.289C156.548 68.0001 160 71.4523 160 75.7109V152.289C160 156.548 156.548 160 152.289 160H117.711C113.452 160 110 156.548 110 152.289V75.7109Z" fill="#6E36B3"/>
</svg>
